<svg xmlns="http://www.w3.org/2000/svg" width="15" height="15" viewBox="0 0 15 15">
  <defs>
    <style>
      .cls-1 {
        fill: #fff;
      }
    </style>
  </defs>
  <g id="Button_User_Upload" transform="translate(0 0)">
    <g id="图层_1" data-name="图层 1" transform="translate(0 0)">
      <path id="路径_27" data-name="路径 27" class="cls-1" d="M0,7.5A7.5,7.5,0,1,1,7.491,15,7.476,7.476,0,0,1,0,7.5Zm13.372.01a5.87,5.87,0,1,0-1.726,4.148,5.871,5.871,0,0,0,1.726-4.148Z" transform="translate(0 0)"/>
      <path id="路径_28" data-name="路径 28" class="cls-1" d="M100.478,79.686a.36.36,0,0,0-.02.2v4.255a.813.813,0,1,1-1.626.008c0-.932,0-1.864,0-2.8V79.8c-.083-.018-.107.04-.141.074-.2.2-.395.4-.6.6a.8.8,0,0,1-1.163,0,.787.787,0,0,1,.026-1.159q.9-.914,1.8-1.826a1.19,1.19,0,0,1,1.3-.319,1.118,1.118,0,0,1,.4.251c.691.634,1.383,1.267,2.064,1.91a.794.794,0,0,1-.117,1.259.821.821,0,0,1-1.034-.114l-.792-.723C100.554,79.718,100.532,79.677,100.478,79.686Z" transform="translate(-92.144 -73.471)"/>
    </g>
  </g>
</svg>
