<svg xmlns="http://www.w3.org/2000/svg" width="55" height="20" viewBox="0 0 55 20">
  <defs>
    <style>
      .cls-1, .cls-2, .cls-3 {
        fill: #fff;
      }

      .cls-1 {
        font-size: 15px;
        font-family: HarmonyOS_Sans_SC_Bold, HarmonyOS Sans SC;
      }

      .cls-2 {
        opacity: 0;
      }
    </style>
  </defs>
  <g id="Button_Media_Back" transform="translate(-300 -118)">
    <text id="Back" class="cls-1" transform="translate(320 134)"><tspan x="0" y="0">Back</tspan></text>
    <g id="页面-1" transform="translate(300 121)">
      <g id="_1.3.1我的_个人信息" data-name="1.3.1我的_个人信息">
        <g id="个人信息_修改密码">
          <g id="编组-16">
            <g id="编组">
              <rect id="矩形" class="cls-2" width="15" height="15"/>
              <path id="路径-5" class="cls-3" d="M5.756,2.244a.834.834,0,0,0-1.063-.1l-.115.1L1.244,5.577a.834.834,0,0,0-.1,1.063l.1.115,3.333,3.333A.833.833,0,0,0,5.852,9.026l-.1-.115L3.012,6.167,5.756,3.423a.834.834,0,0,0,.1-1.063Z" transform="translate(7.333 1.333)"/>
              <path id="路径-5备份" class="cls-3" d="M9.756,2.244a.834.834,0,0,0-1.063-.1l-.115.1L5.244,5.577a.834.834,0,0,0-.1,1.063l.1.115,3.333,3.333A.833.833,0,0,0,9.852,9.026l-.1-.115L7.012,6.167,9.756,3.423a.834.834,0,0,0,.1-1.063Z" transform="translate(-3.333 1.333)"/>
            </g>
          </g>
        </g>
      </g>
    </g>
  </g>
</svg>
