<svg id="Button_inVisible" xmlns="http://www.w3.org/2000/svg" width="20" height="20" viewBox="0 0 20 20">
  <defs>
    <style>
      .cls-1 {
        fill: #9ca2a9;
      }

      .cls-2 {
        fill: #fff;
      }
    </style>
  </defs>
  <g id="新建汇报备份" transform="translate(-18 -650)">
    <g id="编组-2备份" transform="translate(0 628)">
      <g id="编组-3" transform="translate(16 20)">
        <g id="添加汇报_icon_移除" data-name="添加汇报/icon/移除" transform="translate(2 2)">
          <circle id="形状结合" class="cls-1" cx="10" cy="10" r="10"/>
          <path id="Fill-1" class="cls-2" d="M4.853,10.729a9.851,9.851,0,0,1-.91-.862.639.639,0,0,1-.161-.653.68.68,0,0,1,.521-.45l.106-.013a.648.648,0,0,1,.517.195,10.816,10.816,0,0,0,1.438,1.272l.2.145a6.519,6.519,0,0,0,3.7,1.371,6.566,6.566,0,0,0,3.669-1.3,9.281,9.281,0,0,0,1.594-1.364.7.7,0,0,1,.976-.13.672.672,0,0,1,.115.93,9.08,9.08,0,0,1-1.267,1.091l.928.976a.636.636,0,0,1,0,.918.691.691,0,0,1-.979,0l-1.008-1.066a9.075,9.075,0,0,1-1.749.837l.4,1.282a.634.634,0,0,1-.058.51.666.666,0,0,1-.4.309c-.093.034-.2.034-.2.016a.682.682,0,0,1-.654-.482l-.408-1.3a6.867,6.867,0,0,1-.959.077,6.7,6.7,0,0,1-.937-.075l-.358,1.3a.66.66,0,0,1-.662.5l-.2-.008a.686.686,0,0,1-.422-.315.633.633,0,0,1-.059-.509l.4-1.3a9.148,9.148,0,0,1-1.753-.839L5.23,12.845a.65.65,0,0,1-.532.2.505.505,0,0,1-.457-.192.635.635,0,0,1-.211-.466.62.62,0,0,1,.2-.459l.949-.938Z"/>
        </g>
      </g>
    </g>
  </g>
</svg>
