<svg xmlns="http://www.w3.org/2000/svg" width="12" height="12" viewBox="0 0 12 12">
  <defs>
    <style>
      .cls-1 {
        fill: #fff;
      }
    </style>
  </defs>
  <g id="button_social_share" transform="translate(-0.774 -1.174)">
    <g id="添加-you备份" transform="translate(0.774 1.174)">
      <g id="编组-8" transform="translate(0)">
        <g id="编组-9">
          <g id="分-享01">
            <path id="路径" class="cls-1" d="M10.869,9.166a1.845,1.845,0,0,0-1.727,1.127l-3.8-1.7a2.436,2.436,0,0,0,.343-1.278,2.52,2.52,0,0,0-.067-.581L8.047,4.763a1.889,1.889,0,0,0,1.185.407,1.913,1.913,0,0,0,1.915-2,1.911,1.911,0,1,0-3.819,0,2.22,2.22,0,0,0,.144.79l-2.236,1.8a2.415,2.415,0,0,0-2-1.185A2.514,2.514,0,0,0,.774,7.145v.012A2.516,2.516,0,0,0,3.22,9.735h.011A2.486,2.486,0,0,0,4.6,9.34l4.362,1.951a1.905,1.905,0,1,0,3.808-.116,1.921,1.921,0,0,0-1.9-2.01h0Z" transform="translate(-0.774 -1.174)"/>
          </g>
        </g>
      </g>
    </g>
  </g>
</svg>
