<svg xmlns="http://www.w3.org/2000/svg" width="15.224" height="15" viewBox="0 0 15.224 15">
  <defs>
    <style>
      .cls-1 {
        fill: #fff;
      }
    </style>
  </defs>
  <g id="Button_Media_Volumn" transform="translate(0 -0.18)">
    <path id="路径_51" data-name="路径 51" class="cls-1" d="M19.854,4.1a.952.952,0,1,0-1.346,1.346,5.045,5.045,0,0,1,0,7.134.952.952,0,1,0,1.346,1.346,6.947,6.947,0,0,0,0-9.826Z" transform="translate(-6.665 -1.329)"/>
    <path id="路径_52" data-name="路径 52" class="cls-1" d="M11.833,7.679A2.762,2.762,0,0,0,9.775,5.014V1.132A.952.952,0,0,0,8.652.2a7.648,7.648,0,0,0-4.686,2.9H3.489A3.493,3.493,0,0,0,0,6.582V8.775a3.493,3.493,0,0,0,3.489,3.489h.478a7.648,7.648,0,0,0,4.684,2.9.927.927,0,0,0,.172.016.952.952,0,0,0,.952-.952V10.343a2.762,2.762,0,0,0,2.057-2.664ZM7.872,12.958a5.765,5.765,0,0,1-2.616-2.166.952.952,0,0,0-.8-.431h-.97A1.586,1.586,0,0,1,1.9,8.775V6.582A1.586,1.586,0,0,1,3.489,5h.97a.952.952,0,0,0,.8-.431A5.765,5.765,0,0,1,7.872,2.4Z" transform="translate(0 0)"/>
  </g>
</svg>
