<svg xmlns="http://www.w3.org/2000/svg" width="10.797" height="12" viewBox="0 0 10.797 12">
  <defs>
    <style>
      .cls-1 {
        fill: #fff;
      }
    </style>
  </defs>
  <g id="Button_Media_Setting" transform="translate(-25.66)">
    <path id="路径_53" data-name="路径 53" class="cls-1" d="M25.863,9a1.5,1.5,0,0,0,2.049.551h0l.222-.129a4.489,4.489,0,0,0,1.424.822V10.5a1.5,1.5,0,1,0,3,0v-.257a4.488,4.488,0,0,0,1.424-.823l.223.129a1.5,1.5,0,0,0,1.5-2.6h0l-.222-.128a4.55,4.55,0,0,0,0-1.645l.222-.128a1.5,1.5,0,1,0-1.5-2.6l-.222.129a4.489,4.489,0,0,0-1.425-.82V1.5a1.5,1.5,0,1,0-3,0v.257a4.488,4.488,0,0,0-1.424.823l-.224-.129a1.5,1.5,0,1,0-1.5,2.6h0l.222.128a4.55,4.55,0,0,0,0,1.645l-.222.128A1.5,1.5,0,0,0,25.863,9Zm5.2-5a2,2,0,1,1-2,2A2,2,0,0,1,31.059,4Z"/>
  </g>
</svg>
