<svg xmlns="http://www.w3.org/2000/svg" width="12.021" height="12" viewBox="0 0 12.021 12">
  <defs>
    <style>
      .cls-1 {
        fill: #fff;
      }
    </style>
  </defs>
  <path id="Button_Media_Subscribe" class="cls-1" d="M.517,2.983l-.523-.852L3.37.062l.522.855ZM11.163,8.16,9.1,11.511l.852.527,2.068-3.351Zm-.677-.811-2.468,4a1.443,1.443,0,0,1-1.068.7,1.583,1.583,0,0,1-.19.012,1.447,1.447,0,0,1-1.029-.428l-.483-.483A2.381,2.381,0,0,1,1.933,7.834L.425,6.326A1.459,1.459,0,0,1,.651,4.077L4.542,1.7a4.192,4.192,0,0,1,4.867.245l.948-.948.709.709-.952.952a4.235,4.235,0,0,1,.372,4.7ZM4.514,10.417,2.663,8.564a1.363,1.363,0,0,0,.246,1.61,1.416,1.416,0,0,0,1.6.243ZM9.085,2.989a3.208,3.208,0,0,0-4.01-.44L1.189,4.923A.441.441,0,0,0,1,5.248a.451.451,0,0,0,.131.369L6.44,10.925a.444.444,0,0,0,.38.13.451.451,0,0,0,.336-.221l2.466-4a3.231,3.231,0,0,0-.537-3.849Z" transform="translate(0.006 -0.062)"/>
</svg>
