<svg xmlns="http://www.w3.org/2000/svg" xmlns:xlink="http://www.w3.org/1999/xlink" fill="none" version="1.1" width="36.67261505126953" height="38.29740619659424" viewBox="0 0 36.67261505126953 38.29740619659424"><defs><filter id="master_svg0_1_00621" filterUnits="objectBoundingBox" color-interpolation-filters="sRGB" x="-12" y="-9" width="36.67261505126953" height="38.29740619659424"><feFlood flood-opacity="0" result="BackgroundImageFix"/><feColorMatrix in="SourceAlpha" type="matrix" values="0 0 0 0 0 0 0 0 0 0 0 0 0 0 0 0 0 0 127 0"/><feOffset dy="3" dx="0"/><feGaussianBlur stdDeviation="3"/><feColorMatrix type="matrix" values="0 0 0 0 0 0 0 0 0 0 0 0 0 0 0 0 0 0 0.16078431904315948 0"/><feBlend mode="normal" in2="BackgroundImageFix" result="effect1_dropShadow"/><feBlend mode="normal" in="SourceGraphic" in2="effect1_dropShadow" result="shape"/><feGaussianBlur in="BackgroundImage" stdDeviation="30"/><feComposite in2="SourceAlpha" operator="in" result="effect2_foregroundBlur"/><feBlend mode="normal" in="SourceGraphic" in2="effect2_foregroundBlur" result="shape"/></filter></defs><g filter="url(#master_svg0_1_00621)"><path d="M12.330338,19.7075Q11.831887,18.80731,12.0901347,17.807000000000002Q12.298273,17.000790000000002,12.902409,16.49951Q12.88108,16.14974,12.902344,15.79998Q12.297219,15.299859999999999,12.0883195,14.491769999999999Q11.829242,13.48957,12.330147,12.58848Q12.84,11.67131,13.83557,11.3941Q14.62324,11.17477,15.34671,11.45775Q15.605830000000001,11.28172,15.88306,11.13773Q15.99624,10.35068,16.56888,9.756373Q17.29768,9,18.33631,9Q19.37494,8.999999880791,20.103740000000002,9.756372Q20.67598,10.35027,20.7894,11.13663Q21.0668,11.28021,21.32616,11.45587Q22.049,11.1731,22.8371,11.39253Q23.8326,11.66975,24.3425,12.58693Q24.843400000000003,13.48803,24.5843,14.49023Q24.3754,15.29819,23.7703,15.79838Q23.7915,16.14764,23.7703,16.49689Q24.3754,16.99701,24.5843,17.80511Q24.843400000000003,18.80731,24.3425,19.708399999999997Q23.8326,20.6256,22.837,20.9028Q22.0491,21.1222,21.32621,20.839399999999998Q21.06695,21.0156,20.78956,21.1597Q20.67638,21.9467,20.103740000000002,22.541Q19.37494,23.2974,18.33631,23.2974Q17.29768,23.2974,16.56888,22.541Q15.99635,21.9468,15.8831,21.16Q15.60593,21.016199999999998,15.34684,20.8403Q14.62352,21.1233,13.835139999999999,20.9033Q12.840054,20.6256,12.330875,19.708399999999997L12.330338,19.7075ZM13.96648,16.99211C13.867799999999999,16.434829999999998,13.867799999999999,15.863579999999999,13.96648,15.306329999999999L13.74727,15.17517C13.03832,14.750689999999999,12.79518,13.81011,13.204180000000001,13.074349999999999C13.61318,12.3386,14.519449999999999,12.08624,15.2284,12.51074L15.4491,12.64344C15.86372,12.274799999999999,16.340429999999998,11.98889,16.85518,11.80003L16.85518,11.53718C16.85518,10.68822,17.51831,10,18.33631,10C19.15431,10,19.81744,10.68822,19.81744,11.53718L19.81744,11.80003C20.332369999999997,11.988,20.80938,12.27305,21.22452,12.64084L21.444209999999998,12.50915C22.1532,12.08467,23.0594,12.33704,23.468400000000003,13.072790000000001C23.8774,13.80857,23.6343,14.749130000000001,22.9253,15.17361L22.7061,15.304770000000001C22.8048,15.86204,22.8048,16.4333,22.7061,16.99055L22.9253,17.12171C23.6343,17.54619,23.8774,18.48677,23.468400000000003,19.2225C23.0594,19.9583,22.153100000000002,20.2106,21.444209999999998,19.7862L21.22352,19.654C20.8089,20.0226,20.33218,20.308500000000002,19.81744,20.4974L19.81744,20.760199999999998C19.81744,21.6092,19.15431,22.2974,18.33631,22.2974C17.51831,22.2974,16.85518,21.6092,16.85518,20.760199999999998L16.85518,20.4974C16.340510000000002,20.308799999999998,15.86381,20.0232,15.4491,19.655L15.2294,19.7867L15.22796,19.7875C14.5192,20.211399999999998,13.61355,19.9586,13.20517,19.223100000000002C12.797934,18.48761,13.04029,17.54888,13.74727,17.123269999999998L13.96648,16.99211ZM18.33631,14.09914C19.42698,14.09914,20.31114,15.016770000000001,20.31114,16.148699999999998C20.31114,17.28064,19.42698,18.198259999999998,18.33631,18.198259999999998C17.24564,18.198259999999998,16.36147,17.28064,16.36147,16.148699999999998C16.36147,15.016770000000001,17.24564,14.09914,18.33631,14.09914ZM18.33631,15.09914Q17.94344,15.09914,17.66,15.3933Q17.36147,15.70313,17.36147,16.148699999999998Q17.36147,16.59428,17.66,16.9041Q17.94344,17.198259999999998,18.33631,17.198259999999998Q18.72918,17.198259999999998,19.01261,16.9041Q19.31114,16.59428,19.31114,16.148699999999998Q19.31114,15.70313,19.01262,15.3933Q18.72918,15.09914,18.33631,15.09914Z" fill-rule="evenodd" fill="#D9D9D9" fill-opacity="1"/></g></svg>