<svg xmlns="http://www.w3.org/2000/svg" width="13.659" height="12" viewBox="0 0 13.659 12">
  <defs>
    <style>
      .cls-1 {
        fill: #fff;
      }
    </style>
  </defs>
  <path id="Button_Media_Like" class="cls-1" d="M12.962,22.35a3.108,3.108,0,0,0-2.425-1.156H9.38l.051-.3a2.273,2.273,0,0,0-4.27-1.382L4.3,21.194H3.122A3.125,3.125,0,0,0,0,24.315v2.838a3.125,3.125,0,0,0,3.122,3.122H9.937A3.136,3.136,0,0,0,12.991,27.8l.6-2.838A3.109,3.109,0,0,0,12.962,22.35ZM1.7,27.153V24.315A1.419,1.419,0,0,1,3.122,22.9h.851v5.676H3.122A1.419,1.419,0,0,1,1.7,27.153Zm10.222-2.544-.6,2.838a1.425,1.425,0,0,1-1.388,1.125H5.676V22.25l1-1.964a.584.584,0,0,1,.543-.308.54.54,0,0,1,.532.631L7.363,22.9h3.174a1.419,1.419,0,0,1,1.388,1.713Z" transform="translate(0 -18.275)"/>
</svg>
