<svg xmlns="http://www.w3.org/2000/svg" width="12.001" height="12" viewBox="0 0 12.001 12">
  <defs>
    <style>
      .cls-1 {
        fill: #fff;
      }
    </style>
  </defs>
  <path id="Button_Media_Zoomout" class="cls-1" d="M5.281,6.72a.75.75,0,0,1,0,1.061L2.561,10.5h1.19a.75.75,0,1,1,0,1.5h-2A1.752,1.752,0,0,1,0,10.25v-2a.75.75,0,1,1,1.5,0v1.19L4.22,6.72a.75.75,0,0,1,1.061,0ZM10.25,0h-2a.75.75,0,1,0,0,1.5H9.44L6.72,4.22A.75.75,0,0,0,7.781,5.28l2.72-2.72V3.75a.75.75,0,1,0,1.5,0v-2A1.752,1.752,0,0,0,10.251,0Z"/>
</svg>
