<svg xmlns="http://www.w3.org/2000/svg" width="40.149" height="15" viewBox="0 0 40.149 15">
  <defs>
    <style>
      .cls-1 {
        fill: #fff;
      }
    </style>
  </defs>
  <g id="Button_User_Streaming" transform="translate(0.004)">
    <g id="图层_1" data-name="图层 1" transform="translate(-0.004)">
      <path id="路径_31" data-name="路径 31" class="cls-1" d="M20.127,0H36.42a3.6,3.6,0,0,1,3.666,2.878,3.636,3.636,0,0,1,.058.743v7.753A3.565,3.565,0,0,1,36.6,15H3.872A3.71,3.71,0,0,1,.72,13.549,3.559,3.559,0,0,1,0,11.338v-7.4A3.637,3.637,0,0,1,3.958,0Zm7.31,7.486V10.17c0,.576.228.815.792.824q1.5.018,2.992,0c.5,0,.769-.246.777-.651.011-.43-.258-.676-.783-.689-.5-.013-1,0-1.5,0-1.108-.021-.983.207-1-1.059,0-.3.107-.421.412-.416.69.013,1.38.011,2.068,0,.523-.009.8-.261.789-.686-.008-.4-.277-.64-.777-.653s-1,0-1.5,0c-1.107-.02-.982.208-1-1.059,0-.3.108-.419.413-.414.675.013,1.349.009,2.025,0,.557-.007.839-.251.824-.691-.009-.416-.287-.647-.824-.651q-1.451-.013-2.9,0c-.6,0-.824.235-.824.833-.007.87,0,1.749,0,2.63Zm-2.5-2.792a.59.59,0,0,0-.477-.6.7.7,0,0,0-.824.429c-.7,1.327-1.4,2.646-2.111,3.966-.059.108-.085.281-.247.27-.128-.008-.16-.16-.214-.26-.471-.866-.924-1.736-1.388-2.6-.271-.505-.529-1.018-.824-1.507a.619.619,0,0,0-.87-.272A.661.661,0,0,0,17.719,5a2.741,2.741,0,0,0,.137.277q1.38,2.584,2.756,5.168c.15.272.325.507.659.507.359.012.551-.227.706-.513q1.4-2.624,2.8-5.246A.982.982,0,0,0,24.937,4.694ZM8.149,7.471v2.684c0,.589.235.824.824.837.806.015,1.613.009,2.419,0a4.255,4.255,0,0,0,1.009-.038.612.612,0,0,0,.533-.613.621.621,0,0,0-.534-.655,2,2,0,0,0-.436-.039c-.66,0-1.321-.022-1.98,0-.42.019-.565-.118-.559-.549.02-1.422.011-2.845,0-4.267,0-.522-.211-.765-.633-.768s-.637.259-.64.763C8.144,5.711,8.149,6.592,8.149,7.471Zm7.383.029c0-.881.006-1.766,0-2.643,0-.546-.2-.779-.616-.785s-.676.266-.676.792q-.007,2.642,0,5.284c0,.524.248.795.68.785s.606-.243.611-.791q.005-1.321,0-2.643Z" transform="translate(0.004)"/>
    </g>
  </g>
</svg>
