<svg xmlns="http://www.w3.org/2000/svg" width="11.975" height="12" viewBox="0 0 11.975 12">
  <defs>
    <style>
      .cls-1 {
        fill: #fff;
      }
    </style>
  </defs>
  <path id="Button_Media_Subscribed" class="cls-1" d="M1.172,8.6l2.75,2.75A2.11,2.11,0,0,1,1.172,8.6ZM3.681.99a.5.5,0,0,0-.2-.98A5.344,5.344,0,0,0,.124,2.072a.5.5,0,0,0,.8.594A4.32,4.32,0,0,1,3.681.99Zm7.936,7.021a.5.5,0,0,0-.6.381,4.319,4.319,0,0,1-1.658,2.7.5.5,0,1,0,.59.808A5.35,5.35,0,0,0,12,8.607a.5.5,0,0,0-.381-.6ZM10.1,2.623l.77-.77a.5.5,0,1,0-.707-.707l-.771.771a4.228,4.228,0,0,0-4.911-.25l-2.75,1.7a2.513,2.513,0,0,0-.456,3.914l3.479,3.479A2.513,2.513,0,0,0,8.675,10.3l1.8-2.938A4.271,4.271,0,0,0,10.1,2.623Z" transform="translate(-0.035 0)"/>
</svg>
