<svg xmlns="http://www.w3.org/2000/svg" xmlns:xlink="http://www.w3.org/1999/xlink" fill="none" version="1.1" width="120" height="48" viewBox="0 0 120 48"><defs><filter id="master_svg0_0_577" filterUnits="objectBoundingBox" color-interpolation-filters="sRGB" x="-12" y="-9" width="120" height="48"><feFlood flood-opacity="0" result="BackgroundImageFix"/><feColorMatrix in="SourceAlpha" type="matrix" values="0 0 0 0 0 0 0 0 0 0 0 0 0 0 0 0 0 0 127 0"/><feOffset dy="3" dx="0"/><feGaussianBlur stdDeviation="3"/><feColorMatrix type="matrix" values="0 0 0 0 0 0 0 0 0 0 0 0 0 0 0 0 0 0 0.16078431904315948 0"/><feBlend mode="normal" in2="BackgroundImageFix" result="effect1_dropShadow"/><feBlend mode="normal" in="SourceGraphic" in2="effect1_dropShadow" result="shape"/><feGaussianBlur in="BackgroundImage" stdDeviation="30"/><feComposite in2="SourceAlpha" operator="in" result="effect2_foregroundBlur"/><feBlend mode="normal" in="SourceGraphic" in2="effect2_foregroundBlur" result="shape"/></filter><linearGradient x1="1" y1="1" x2="0" y2="0" id="master_svg1_0_10373"><stop offset="0%" stop-color="#FF0000" stop-opacity="1"/><stop offset="100%" stop-color="#F548F8" stop-opacity="1"/></linearGradient></defs><g style="mix-blend-mode:passthrough"><g filter="url(#master_svg0_0_577)"><rect x="12" y="9" width="96" height="24" rx="12" fill="url(#master_svg1_0_10373)" fill-opacity="0.5"/></g><g><path d="M33.72656,22.35156Q33.72656,23.28125,33.27344,23.90625Q32.82422,24.527340000000002,32.10156,24.82812Q31.38281,25.125,30.5625,25.125Q29.36328,25.125,28.40234,24.57031Q27.445312,24.01562,27.128906,22.99609L28.48828,22.14844Q28.77734,22.85938,29.32812,23.253909999999998Q29.87891,23.64453,30.64453,23.64453Q31.26953,23.64453,31.63281,23.38281Q32,23.121090000000002,32,22.625Q32,22.23047,31.75781,21.96875Q31.51562,21.70703,31.15234,21.55859Q30.79297,21.41016,30.16406,21.21484Q29.32422,20.95312,28.78906,20.69922Q28.25391,20.44141,27.875,19.93359Q27.5,19.42188,27.5,18.58984Q27.5,17.71094,27.9375,17.09766Q28.375,16.48438,29.09375,16.17969Q29.81641,15.875,30.64844,15.875Q31.78516,15.875,32.58984,16.38672Q33.39844,16.89844,33.63672,17.77344L32.29688,18.625Q32.08203,18.03125,31.64453,17.69531Q31.21094,17.35547,30.55859,17.35547Q29.96094,17.35547,29.59375,17.63672Q29.22656,17.91797,29.22656,18.37109Q29.22656,18.71875,29.44922,18.94922Q29.67578,19.17578,30.02344,19.32031Q30.375,19.46094,30.96484,19.64844Q31.82031,19.91016,32.375,20.17578Q32.93359,20.44141,33.32812,20.96875Q33.72656,21.49219,33.72656,22.35156ZM40.5,16L42.2266,16L42.2266,21.34375Q42.2266,22.5,41.7773,23.35547Q41.332,24.20703,40.4883,24.66797Q39.6484,25.125,38.4922,25.125Q37.3242,25.125,36.48047,24.66797Q35.64062,24.20703,35.19531,23.35547Q34.75,22.5,34.75,21.34375L34.75,16L36.47656,16L36.47656,21.01953Q36.47656,22.34375,37.0039,22.99609Q37.5352,23.64453,38.4961,23.64453Q39.4453,23.64453,39.9727,22.99609Q40.5,22.34375,40.5,21.01953L40.5,16ZM49.351600000000005,20.39844Q50.75,20.92188,50.75,22.44531Q50.75,23.64453,49.886700000000005,24.32422Q49.0273,25,47.4727,25L44,25L44,16L47.1289,16Q48.511700000000005,16,49.3789,16.66797Q50.25,17.33594,50.25,18.54688Q50.25,19.8125,49.351600000000005,20.39844ZM45.726600000000005,17.48047L45.726600000000005,19.75L47.011700000000005,19.75Q47.707,19.75,48.113299999999995,19.42969Q48.523399999999995,19.10547,48.523399999999995,18.57031Q48.523399999999995,18.04297,48.1211,17.76172Q47.7188,17.48047,47.011700000000005,17.48047L45.726600000000005,17.48047ZM47.3789,23.51953Q48.168,23.51953,48.5938,23.22656Q49.023399999999995,22.92969,49.023399999999995,22.39062Q49.023399999999995,21.84766,48.5938,21.53906Q48.168,21.23047,47.3672,21.23047L45.726600000000005,21.23047L45.726600000000005,23.51953L47.3789,23.51953ZM57.976600000000005,22.35156Q57.976600000000005,23.28125,57.523399999999995,23.90625Q57.074200000000005,24.527340000000002,56.351600000000005,24.82812Q55.6328,25.125,54.8125,25.125Q53.613299999999995,25.125,52.6523,24.57031Q51.6953,24.01562,51.3789,22.99609L52.738299999999995,22.14844Q53.0273,22.85938,53.5781,23.253909999999998Q54.1289,23.64453,54.8945,23.64453Q55.5195,23.64453,55.8828,23.38281Q56.25,23.121090000000002,56.25,22.625Q56.25,22.23047,56.0078,21.96875Q55.7656,21.70703,55.4023,21.55859Q55.043,21.41016,54.414100000000005,21.21484Q53.574200000000005,20.95312,53.039100000000005,20.69922Q52.5039,20.44141,52.125,19.93359Q51.75,19.42188,51.75,18.58984Q51.75,17.71094,52.1875,17.09766Q52.625,16.48438,53.3438,16.17969Q54.0664,15.875,54.898399999999995,15.875Q56.0352,15.875,56.8398,16.38672Q57.648399999999995,16.89844,57.886700000000005,17.77344L56.5469,18.625Q56.332,18.03125,55.8945,17.69531Q55.460899999999995,17.35547,54.8086,17.35547Q54.210899999999995,17.35547,53.8438,17.63672Q53.476600000000005,17.91797,53.476600000000005,18.37109Q53.476600000000005,18.71875,53.699200000000005,18.94922Q53.925799999999995,19.17578,54.273399999999995,19.32031Q54.625,19.46094,55.2148,19.64844Q56.0703,19.91016,56.625,20.17578Q57.1836,20.44141,57.5781,20.96875Q57.976600000000005,21.49219,57.976600000000005,22.35156ZM62.8164,23.64453Q63.4531,23.64453,63.9141,23.285159999999998Q64.375,22.92578,64.6523,22.28516L66.1055,23.183590000000002Q65.7852,24.035159999999998,64.9336,24.58203Q64.082,25.125,62.8984,25.125Q61.7539,25.125,60.8086,24.55078Q59.8633,23.97656,59.3047,22.92188Q58.75,21.86328,58.75,20.49609Q58.75,19.125,59.3008,18.07422Q59.8516,17.02344,60.8008,16.44922Q61.7539,15.875,62.8984,15.875Q64.082,15.875,64.9336,16.42188Q65.7852,16.96484,66.1055,17.81641L64.6523,18.71484Q64.375,18.07031,63.9141,17.71484Q63.4531,17.35547,62.8164,17.35547Q62.1445,17.35547,61.6172,17.74219Q61.0898,18.125,60.7812,18.83594Q60.4766,19.54688,60.4766,20.49219Q60.4766,21.44141,60.7812,22.16016Q61.0898,22.875,61.6172,23.26172Q62.1445,23.64453,62.8164,23.64453ZM74.5781,25L72.58590000000001,25L70.39840000000001,21.75L70.32419999999999,21.75L68.97659999999999,21.75L68.97659999999999,25L67.25,25L67.25,16L70.30080000000001,16Q71.3398,16,72.1211,16.35938Q72.9062,16.71484,73.3281,17.375Q73.75,18.03125,73.75,18.87891Q73.75,19.74219,73.3477,20.39453Q72.9453,21.04688,72.2148,21.39062L74.5781,25ZM68.97659999999999,17.48047L68.97659999999999,20.26953L70.1328,20.26953Q70.9453,20.26953,71.4844,19.92578Q72.02340000000001,19.58203,72.02340000000001,18.875Q72.02340000000001,18.16016,71.48830000000001,17.82031Q70.957,17.48047,70.1328,17.48047L68.97659999999999,17.48047ZM77.22659999999999,25L75.5,25L75.5,16L77.22659999999999,16L77.22659999999999,25ZM84.60159999999999,20.39844Q86,20.92188,86,22.44531Q86,23.64453,85.13669999999999,24.32422Q84.2773,25,82.7227,25L79.25,25L79.25,16L82.3789,16Q83.76169999999999,16,84.6289,16.66797Q85.5,17.33594,85.5,18.54688Q85.5,19.8125,84.60159999999999,20.39844ZM80.97659999999999,17.48047L80.97659999999999,19.75L82.26169999999999,19.75Q82.957,19.75,83.36330000000001,19.42969Q83.77340000000001,19.10547,83.77340000000001,18.57031Q83.77340000000001,18.04297,83.3711,17.76172Q82.9688,17.48047,82.26169999999999,17.48047L80.97659999999999,17.48047ZM82.6289,23.51953Q83.418,23.51953,83.8438,23.22656Q84.27340000000001,22.92969,84.27340000000001,22.39062Q84.27340000000001,21.84766,83.8438,21.53906Q83.418,21.23047,82.6172,21.23047L80.97659999999999,21.23047L80.97659999999999,23.51953L82.6289,23.51953ZM92.75,21.23047L89.22659999999999,21.23047L89.22659999999999,23.51953L93.375,23.51953L93.375,25L87.5,25L87.5,16L93.25,16L93.25,17.48047L89.22659999999999,17.48047L89.22659999999999,19.75L92.75,19.75L92.75,21.23047Z" fill="#FFFFFF" fill-opacity="1"/></g></g></svg>