<svg xmlns="http://www.w3.org/2000/svg" width="12" height="12" viewBox="0 0 12 12">
  <defs>
    <style>
      .cls-1 {
        fill: #fff;
      }
    </style>
  </defs>
  <path id="Button_Media_Film" class="cls-1" d="M9.25,0H2.75A2.753,2.753,0,0,0,0,2.75v6.5A2.753,2.753,0,0,0,2.75,12h6.5A2.753,2.753,0,0,0,12,9.25V2.75A2.753,2.753,0,0,0,9.25,0ZM1.5,5h1V7h-1ZM8,5.25H4V1.5H8ZM4,6.75H8V10.5H4ZM9.5,5h1V7h-1Zm1-2.25V3.5h-1V1.526a1.25,1.25,0,0,1,1,1.225Zm-8-1.224V3.5h-1V2.75a1.25,1.25,0,0,1,1-1.224ZM1.5,9.25V8.5h1v1.974A1.25,1.25,0,0,1,1.5,9.25Zm8,1.224V8.5h1v.75a1.25,1.25,0,0,1-1,1.224Z"/>
</svg>
