<svg xmlns="http://www.w3.org/2000/svg" width="12.083" height="12.084" viewBox="0 0 12.083 12.084">
  <defs>
    <style>
      .cls-1 {
        fill: gray;
      }
    </style>
  </defs>
  <path id="Button_QA" class="cls-1" d="M9.041,3A6.041,6.041,0,1,1,6.27,14.411l-2.311.645a.755.755,0,0,1-.93-.931l.645-2.309A6.043,6.043,0,0,1,9.041,3Zm0,.906a5.137,5.137,0,0,0-4.487,7.635l.091.163-.672,2.407,2.408-.672.163.091a5.136,5.136,0,1,0,2.5-9.624Zm0,7.25a.6.6,0,1,1-.6.6A.6.6,0,0,1,9.041,11.156Zm0-5.286A1.661,1.661,0,0,1,10.7,7.531a1.808,1.808,0,0,1-.635,1.425l-.1.1c-.376.376-.471.535-.471.888a.453.453,0,1,1-.906,0,1.808,1.808,0,0,1,.635-1.425l.1-.1c.376-.376.471-.535.471-.888A.755.755,0,0,0,8.29,7.454l0,.077a.453.453,0,1,1-.906,0A1.661,1.661,0,0,1,9.041,5.87Z" transform="translate(-3 -3)"/>
</svg>
