<svg xmlns="http://www.w3.org/2000/svg" width="12.857" height="15" viewBox="0 0 12.857 15">
  <defs>
    <style>
      .cls-1 {
        fill: #fff;
      }
    </style>
  </defs>
  <g id="Button_User_Notice" transform="translate(-0.001)">
    <g id="图层_1" data-name="图层 1" transform="translate(0.001)">
      <path id="路径_25" data-name="路径 25" class="cls-1" d="M133.873,367.652a1.551,1.551,0,0,1-1.2-1.09c-.127-.409-.1-.433.322-.433h2.47c.188,0,.191,0,.179.189a1.547,1.547,0,0,1-1.062,1.281c-.061.019-.122.035-.183.052Z" transform="translate(-127.704 -352.652)"/>
      <path id="路径_26" data-name="路径 26" class="cls-1" d="M6.428,12.773H.264c-.249,0-.226,0-.254-.248a.949.949,0,0,1,.37-.9c.349-.3.653-.646.985-.964a.465.465,0,0,0,.157-.37q-.01-1.9,0-3.792a5.021,5.021,0,0,1,.409-2.066,4.8,4.8,0,0,1,2.3-2.395,4.286,4.286,0,0,1,.905-.343.172.172,0,0,0,.157-.2A2.8,2.8,0,0,1,5.3,1.009a1.14,1.14,0,0,1,2.265,0,2.2,2.2,0,0,1,.016.437c-.011.147.037.214.185.254A4.835,4.835,0,0,1,9.856,2.885a4.733,4.733,0,0,1,1.38,2.466A5.41,5.41,0,0,1,11.351,6.5q0,1.91,0,3.821a.392.392,0,0,0,.126.309c.428.416.847.841,1.272,1.26a.316.316,0,0,1,.109.258c-.007.161-.006.322,0,.483,0,.11-.045.151-.148.145-.049,0-.1,0-.148,0Zm0-1.532H9.619c.191,0,.191,0,.191-.2V6.436a3.548,3.548,0,0,0-.131-.982A3.361,3.361,0,0,0,5.333,3.212a3.315,3.315,0,0,0-2.271,3.2c0,1.546,0,3.092,0,4.638,0,.2,0,.2.205.2Z" transform="translate(-0.001)"/>
    </g>
  </g>
</svg>
