<svg id="button_video_more" xmlns="http://www.w3.org/2000/svg" width="1.738" height="12" viewBox="0 0 1.738 12">
  <defs>
    <style>
      .cls-1 {
        opacity: 0.6;
      }

      .cls-2 {
        fill: #fff;
      }
    </style>
  </defs>
  <g id="body" transform="translate(0)">
    <g id="组_103" data-name="组 103" class="cls-1">
      <path id="路径_56" data-name="路径 56" class="cls-2" d="M17.786,12.261a.8.8,0,0,1-.337-.064.933.933,0,1,1,.69-.04A.8.8,0,0,1,17.786,12.261Zm0,3.41a.8.8,0,0,1,.337.064.853.853,0,0,1,.008,1.573.859.859,0,0,1-.666,0,.856.856,0,0,1,.008-1.573.8.8,0,0,1,.313-.064Zm0,5.119a.8.8,0,0,1,.337.064.867.867,0,0,1,.016,1.6.859.859,0,0,1-.666,0,.846.846,0,0,1-.032-1.573.8.8,0,0,1,.345-.1Z" transform="translate(-16.917 -10.518)"/>
    </g>
  </g>
  <g id="body-2" data-name="body" transform="translate(0)">
    <g id="组_103-2" data-name="组 103" class="cls-1">
      <path id="路径_56-2" data-name="路径 56" class="cls-2" d="M17.786,12.261a.8.8,0,0,1-.337-.064.933.933,0,1,1,.69-.04A.8.8,0,0,1,17.786,12.261Zm0,3.41a.8.8,0,0,1,.337.064.853.853,0,0,1,.008,1.573.859.859,0,0,1-.666,0,.856.856,0,0,1,.008-1.573.8.8,0,0,1,.313-.064Zm0,5.119a.8.8,0,0,1,.337.064.867.867,0,0,1,.016,1.6.859.859,0,0,1-.666,0,.846.846,0,0,1-.032-1.573.8.8,0,0,1,.345-.1Z" transform="translate(-16.917 -10.518)"/>
    </g>
  </g>
</svg>
