<svg xmlns="http://www.w3.org/2000/svg" width="13.577" height="12" viewBox="0 0 13.577 12">
  <defs>
    <style>
      .cls-1 {
        fill: #fff;
      }
    </style>
  </defs>
  <path id="Button_Media_Collect" class="cls-1" d="M9.749,1.851a3.713,3.713,0,0,0-2.968,1.53,3.713,3.713,0,0,0-2.968-1.53A3.977,3.977,0,0,0,0,5.963C0,8.537,2.64,11.291,4.86,13.149a2.99,2.99,0,0,0,3.849,0c2.217-1.858,4.861-4.613,4.861-7.186A3.977,3.977,0,0,0,9.749,1.851Zm-2.133,10a1.3,1.3,0,0,1-1.67,0c-2.7-2.266-4.252-4.411-4.252-5.886a2.285,2.285,0,0,1,2.12-2.417,2.285,2.285,0,0,1,2.12,2.417.848.848,0,1,0,1.7,0,2.285,2.285,0,0,1,2.12-2.417,2.285,2.285,0,0,1,2.12,2.417C11.869,7.439,10.319,9.584,7.616,11.85Z" transform="translate(0.004 -1.851)"/>
</svg>
