<svg xmlns="http://www.w3.org/2000/svg" width="12.6" height="12" viewBox="0 0 12.6 12">
  <defs>
    <style>
      .cls-1 {
        fill: #fff;
      }
    </style>
  </defs>
  <g id="Button_Media_Share" transform="translate(-0.774 -1.174)">
    <g id="添加-you备份" transform="translate(0.774 1.174)">
      <g id="编组-8">
        <g id="编组-9">
          <g id="分-享01" transform="translate(0 0)">
            <path id="路径" class="cls-1" d="M11.374,9.166a1.942,1.942,0,0,0-1.813,1.127L5.574,8.6a2.348,2.348,0,0,0,.36-1.278,2.406,2.406,0,0,0-.07-.581L8.41,4.763a2.047,2.047,0,0,0,1.244.407,1.958,1.958,0,0,0,2.011-2,1.958,1.958,0,0,0-2.011-2,1.949,1.949,0,0,0-2,2,2.127,2.127,0,0,0,.151.79l-2.348,1.8a2.559,2.559,0,0,0-2.1-1.185A2.574,2.574,0,0,0,.774,7.145v.012A2.574,2.574,0,0,0,3.343,9.735h.011A2.706,2.706,0,0,0,4.8,9.34l4.58,1.951a2,2,0,1,0,2-2.126h0Z" transform="translate(-0.774 -1.174)"/>
          </g>
        </g>
      </g>
    </g>
  </g>
</svg>
