<svg xmlns="http://www.w3.org/2000/svg" xmlns:xlink="http://www.w3.org/1999/xlink" fill="none" version="1.1" width="24.0185546875" height="26.606975555419922" viewBox="0 0 24.0185546875 26.606975555419922"><g style="mix-blend-mode:passthrough"><g style="mix-blend-mode:passthrough"><g><path d="M8.71853,23.998C8.71853,23.998,3.79848,23.998,3.79848,23.998C3.79848,23.0686,3.79716,22.1395,3.79453,21.2105C3.79453,20.8874,3.78334,20.8775,3.46543,20.8768C2.825,20.8768,2.18457,20.8808,1.5448,20.8768C1.02943,20.8722,0.514713,20.8999,0,20.8597C0,20.8597,0,4.36455,0,4.36455C0.116502,4.35863,0.233003,4.3481,0.350163,4.34744C0.350163,4.34744,6.7459,4.34744,6.7459,4.34744C7.06118,4.34744,7.075,4.33559,7.075,4.01834C7.075,3.28466,7.075,2.55077,7.075,1.81665C7.075,1.25258,7.10528,1.35591,7.52719,1.35591C8.08929,1.34999,8.65205,1.34538,9.21415,1.35591C9.44518,1.36184,9.51824,1.2743,9.50771,1.05512C9.49455,0.791836,9.50771,0.523948,9.50442,0.258693C9.50047,0.0855864,9.56366,-0.000637857,9.74861,0.000678546C10.4823,0.00462774,11.2164,0.00462774,11.951,0.000678546C12.1195,0.000678546,12.1925,0.0724224,12.1905,0.239605C12.1872,0.528556,12.1965,0.817506,12.1905,1.10646C12.1866,1.2868,12.2564,1.35394,12.4407,1.35394C14.9243,1.35043,17.4077,1.35043,19.8908,1.35394C20.0771,1.35394,20.139,1.27956,20.1337,1.10185C20.1252,0.820797,20.1409,0.539087,20.1291,0.258693C20.1205,0.061233,20.2055,-0.00129612,20.3924,0.0000202793C21.1111,0.00528589,21.8297,0.00528589,22.548,0.0000202793C22.7231,0.0000202793,22.804,0.0605748,22.7974,0.246846C22.7876,0.527239,22.8027,0.808949,22.7928,1.09C22.7863,1.2789,22.8508,1.36315,23.0489,1.35328C23.2825,1.34143,23.5175,1.36184,23.7512,1.34736C23.9618,1.33419,24.0375,1.42108,24.0145,1.62051C24.0122,1.65953,24.0122,1.69865,24.0145,1.73767C24.0145,1.73767,24.0145,20.503,24.0145,20.503C24.0145,20.8788,24.0145,20.8795,23.6261,20.8795C23.6261,20.8795,19.5479,20.8795,19.5479,20.8795C19.2359,20.8795,19.2267,20.8887,19.2254,21.1901C19.2254,21.4534,19.2254,21.7189,19.2254,21.9866C19.2254,22.2893,19.2372,22.2999,19.5459,22.2999C20.2252,22.2999,20.9053,22.2999,21.5864,22.2999C21.7272,22.2999,21.8582,22.3051,21.8549,22.5019C21.8483,23.0009,21.8457,23.5004,21.8411,24C21.8411,24,16.9704,24,16.9704,24C16.9632,23.9072,16.9493,23.8144,16.9493,23.7216C16.9493,22.8633,16.9493,22.0054,16.9493,21.148C16.9493,20.99,16.9316,20.8762,16.7269,20.8768C15.292,20.8812,13.8569,20.8812,12.4216,20.8768C12.2616,20.8768,12.1958,20.9427,12.1978,21.1013C12.2011,21.3896,12.1978,21.6779,12.1978,21.9668C12.1978,22.2893,12.2077,22.2959,12.5269,22.2959C13.2055,22.2959,13.8841,22.2959,14.5627,22.2959C14.7233,22.2959,14.8358,22.3249,14.8319,22.5237C14.8227,23.0147,14.822,23.5057,14.8174,23.9967C14.8174,23.9967,9.94673,23.9967,9.94673,23.9967C9.89078,23.8796,9.90131,23.7532,9.90131,23.6288C9.90131,22.803,9.90131,21.9765,9.90131,21.1493C9.90131,20.994,9.88157,20.8735,9.67818,20.8742C8.56319,20.8782,7.44842,20.8782,6.33387,20.8742C6.17392,20.8742,6.10679,20.94,6.10876,21.0987C6.10876,21.3948,6.10876,21.691,6.10876,21.9872C6.10876,22.2834,6.12785,22.2953,6.41285,22.2959C7.09935,22.2959,7.7852,22.2959,8.47104,22.2959C8.63296,22.2959,8.74485,22.3269,8.74156,22.5237C8.72248,23.016,8.72248,23.507,8.71853,23.998C8.71853,23.998,8.71853,23.998,8.71853,23.998ZM18.4191,17.2528C19.8553,17.2528,21.2919,17.2528,22.729,17.2528C22.9047,17.2528,23.0581,17.2495,23.0581,17.0046C23.0535,16.0601,23.0581,15.1149,23.0581,14.1704C23.0581,14,22.9831,13.9348,22.8152,13.9374C22.417,13.9427,22.0188,13.9473,21.6212,13.9374C21.41,13.9315,21.3257,14,21.3316,14.2191C21.3435,14.6634,21.3356,15.109,21.3316,15.554C21.3316,15.887,21.3178,15.9015,20.9927,15.9022C20.9927,15.9022,15.8659,15.9022,15.8659,15.9022C15.5368,15.9022,15.5217,15.8857,15.5204,15.5586C15.5204,14.9109,15.5138,14.2626,15.5204,13.6149C15.5204,13.4023,15.4434,13.3227,15.2301,13.3292C14.8477,13.3411,14.4646,13.3437,14.0829,13.3292C13.8525,13.3207,13.7867,13.4082,13.7887,13.6294C13.7972,14.7148,13.7887,15.8014,13.7926,16.8855C13.7926,17.2475,13.7992,17.2554,14.1566,17.2554C14.1566,17.2554,18.4191,17.2528,18.4191,17.2528C18.4191,17.2528,18.4191,17.2528,18.4191,17.2528ZM17.8708,7.57196C17.8708,8.33679,17.8774,9.10162,17.8669,9.86645C17.8669,10.0876,17.9327,10.1686,18.1604,10.1672C19.6894,10.16,21.2191,10.164,22.7487,10.1633C23.0344,10.1633,23.0568,10.1416,23.0568,9.85592C23.0568,8.33416,23.0568,6.8124,23.0568,5.29064C23.0568,5.00564,23.0318,4.98063,22.7501,4.97997C21.2204,4.97997,19.6907,4.97997,18.1611,4.97602C17.9347,4.97602,17.8642,5.05632,17.8669,5.27813C17.8767,6.04296,17.8708,6.80779,17.8708,7.57196C17.8708,7.57196,17.8708,7.57196,17.8708,7.57196ZM10.8834,7.26919C10.8834,8.12748,10.8834,8.986,10.8834,9.84473C10.8834,10.1515,10.8985,10.1672,11.1973,10.1679C12.9086,10.1679,14.6178,10.1679,16.3247,10.1679C16.6123,10.1679,16.6301,10.1495,16.6301,9.85855C16.6301,8.14986,16.6301,6.44074,16.6301,4.73117C16.6301,4.43959,16.613,4.42116,16.3273,4.42116C14.6107,4.42116,12.8935,4.42116,11.1769,4.41721C10.9511,4.41721,10.8774,4.49488,10.8794,4.71735C10.8886,5.56774,10.8834,6.4188,10.8834,7.26919C10.8834,7.26919,10.8834,7.26919,10.8834,7.26919Z" fill="#FFFFFF" fill-opacity="1"/></g><g><path d="M19.82831047241211,6.0344085693359375C20.31274047241211,6.0344085693359375,20.79651047241211,6.039672849335937,21.28027047241211,6.0344085693359375C21.46262047241211,6.0344085693359375,21.528440472412107,6.100227369335937,21.527770472412108,6.280578569335938C21.52252047241211,7.249008569335937,21.52252047241211,8.216998569335937,21.527770472412108,9.184558569335938C21.527770472412108,9.370168569335938,21.44879047241211,9.432698569335937,21.275700472412108,9.432698569335937C20.30814047241211,9.430068569335937,19.340360472412108,9.430068569335937,18.37237547241211,9.432698569335937C18.19464147241211,9.432698569335937,18.12225381841211,9.360958569335939,18.12289468769211,9.179958569335938C18.12817423241211,8.214588569335938,18.12817423241211,7.246818569335938,18.12289468769211,6.276626569335938C18.12289468769211,6.092330969335937,18.19793737241211,6.031776429335937,18.37631247241211,6.035064697335938C18.86071847241211,6.039016719335938,19.34448047241211,6.0344085693359375,19.82831047241211,6.0344085693359375C19.82831047241211,6.0344085693359375,19.82831047241211,6.0344085693359375,19.82831047241211,6.0344085693359375Z" fill="#FFFFFF" fill-opacity="1"/></g><g><path d="M13.408871124572753,9.584080524291991C12.784241124572754,9.584080524291991,12.158295124572755,9.576840524291992,11.536286124572754,9.588040524291992C11.327637024572754,9.591320524291993,11.240753494572754,9.528790524291992,11.242065754472755,9.312240524291992C11.247345294572755,8.048060524291992,11.247345294572755,6.783870524291992,11.242065754472755,5.519683524291992C11.242065754472755,5.309066624291992,11.318420724572753,5.234695294291992,11.531677124572754,5.236007549691992C12.796291124572754,5.243911604291992,14.060481124572753,5.243911604291992,15.324221124572754,5.236007549691992C15.553921124572753,5.236007549691992,15.619751124572755,5.322891124291992,15.618441124572755,5.539443524291992C15.612731124572754,6.787400524291992,15.612731124572754,8.035770524291992,15.618441124572755,9.284610524291992C15.618441124572755,9.521540524291993,15.536831124572753,9.593950524291992,15.303831124572753,9.588680524291991C14.673281124572753,9.574860524291992,14.040741124572754,9.584080524291991,13.408871124572753,9.584080524291991C13.408871124572753,9.584080524291991,13.408871124572753,9.584080524291991,13.408871124572753,9.584080524291991Z" fill="#FFFFFF" fill-opacity="1"/></g></g></g></svg>