<svg xmlns="http://www.w3.org/2000/svg" xmlns:xlink="http://www.w3.org/1999/xlink" width="30.006" height="30" viewBox="0 0 30.006 30">
  <defs>
    <style>
      .cls-1 {
        fill: url(#linear-gradient);
      }
    </style>
    <linearGradient id="linear-gradient" x1="1" y1="0.055" x2="0.076" y2="1" gradientUnits="objectBoundingBox">
      <stop offset="0" stop-color="#fff703"/>
      <stop offset="0.713" stop-color="#9c7300"/>
      <stop offset="0.84" stop-color="#a17a00"/>
      <stop offset="1" stop-color="#ce4868"/>
    </linearGradient>
  </defs>
  <g id="Icon_Media_Medal_Golden" transform="translate(0.004)">
    <g id="图层_1" data-name="图层 1" transform="translate(-0.004)">
      <path id="路径_32" data-name="路径 32" class="cls-1" d="M5,0h.586A5.571,5.571,0,0,1,7.71,2.659a3.466,3.466,0,0,1,.032,2.516A5.682,5.682,0,0,1,6.418,7.224a.774.774,0,0,0-.235.541c-.028.594-.078,1.186-.131,1.779a13.558,13.558,0,0,0,.013,3.12,9.055,9.055,0,0,0,18-1.461c0-1.005-.163-2-.182-3a1.971,1.971,0,0,0-.6-1.355,4.135,4.135,0,0,1-1.2-2.728A4.946,4.946,0,0,1,24.442,0h.582a5.53,5.53,0,0,1,2.131,2.676,3.5,3.5,0,0,1,.018,2.515,4.536,4.536,0,0,1-1.082,1.753,1.353,1.353,0,0,0-.4,1.235c.027.235.045.469.058.7s.092.286.313.171a5.932,5.932,0,0,1,2.707-.632c.776-.016,1.04.2,1.233.951V11.01c-.035.171-.069.343-.1.515a3.752,3.752,0,0,1-2.5,2.924,7.293,7.293,0,0,1-1.858.372.336.336,0,0,0-.321.241,9.612,9.612,0,0,1-.4.939c-.127.244-.056.313.189.356a5.426,5.426,0,0,1,3.258,2.023.878.878,0,0,1-.018,1.226,6.525,6.525,0,0,1-1.462,1.3,3.824,3.824,0,0,1-4.4.088c-.078-.049-.164-.156-.256-.114-.118.054-.059.192-.059.293q0,3.893,0,7.784a.932.932,0,0,1-1.524.829c-.558-.375-1.114-.756-1.687-1.108a.674.674,0,0,1-.359-.661c.014-2.019.008-4.039.006-6.058,0-.329-.021-.339-.333-.253a7.377,7.377,0,0,1-.992.246c-.319.042-.391.188-.391.484.013,1.492.006,2.985,0,4.478,0,.1.054.235-.06.293-.093.045-.176-.059-.255-.111-.408-.266-.82-.529-1.219-.809a.352.352,0,0,0-.469,0c-.4.279-.81.543-1.22.807-.086.055-.175.173-.281.109-.086-.052-.045-.181-.045-.276,0-1.521,0-3.043,0-4.565,0-.235-.069-.352-.313-.391-.345-.059-.684-.156-1.022-.247-.369-.1-.373-.1-.373.285v6.116a.5.5,0,0,1-.247.483c-.608.391-1.206.793-1.809,1.19a1.084,1.084,0,0,1-.482.2A.9.9,0,0,1,7.967,29q0-3.907,0-7.814c0-.1.056-.241-.049-.3s-.192.064-.279.117a3.812,3.812,0,0,1-4.326-.06,6.6,6.6,0,0,1-1.4-1.191.986.986,0,0,1,.019-1.564A5.436,5.436,0,0,1,5.1,16.336c.186-.029.228-.095.145-.271-.156-.336-.3-.678-.436-1.022a.319.319,0,0,0-.3-.224c-.291-.025-.583-.056-.869-.109A3.933,3.933,0,0,1,.275,12.041,6.024,6.024,0,0,1,.06,9.325a.933.933,0,0,1,1.047-.909,6.046,6.046,0,0,1,2.882.641c.185.1.275.064.287-.144.027-.428.048-.86.078-1.284a.488.488,0,0,0-.161-.391,6.469,6.469,0,0,1-.857-1.075,3.836,3.836,0,0,1-.688-2A4.948,4.948,0,0,1,5,0Z" transform="translate(0.004)"/>
      <path id="路径_33" data-name="路径 33" class="cls-1" d="M119.217,64.264a6.754,6.754,0,1,1-6.747-6.8A6.758,6.758,0,0,1,119.217,64.264Zm-6.054-.113c0-.939,0-1.877,0-2.809a.539.539,0,0,0-.759-.531,7.591,7.591,0,0,0-1.405.838.572.572,0,0,0-.078.724.383.383,0,0,0,.533.145c.318-.145.323-.141.323.217v4.215c0,.429.214.609.7.608s.673-.171.675-.6C113.163,66.021,113.163,65.084,113.163,64.15Z" transform="translate(-97.442 -52.966)"/>
    </g>
  </g>
</svg>
