<svg xmlns="http://www.w3.org/2000/svg" width="8.703" height="16" viewBox="0 0 8.703 16">
  <defs>
    <style>
      .cls-1 {
        fill: #00fff7;
        stroke: #00fff7;
      }
    </style>
  </defs>
  <g id="Icon_Phone" transform="translate(-28.5 -9.913)">
    <g id="组_195" data-name="组 195" transform="translate(29 10.413)">
      <path id="路径_60" data-name="路径 60" class="cls-1" d="M35.486,25.413h-5.27A1.218,1.218,0,0,1,29,24.2V11.629a1.217,1.217,0,0,1,1.216-1.216h5.27A1.217,1.217,0,0,1,36.7,11.629V24.2A1.218,1.218,0,0,1,35.486,25.413Zm-5.27-14.595a.811.811,0,0,0-.811.811V24.2a.811.811,0,0,0,.811.811h5.27A.811.811,0,0,0,36.3,24.2V11.629a.811.811,0,0,0-.811-.811Z" transform="translate(-29 -10.413)"/>
      <path id="路径_61" data-name="路径 61" class="cls-1" d="M42.436,13.724H40.409a.66.66,0,0,1-.659-.659.152.152,0,0,1,.3,0,.355.355,0,0,0,.355.355h2.027a.355.355,0,0,0,.355-.355.152.152,0,0,1,.3,0A.66.66,0,0,1,42.436,13.724Z" transform="translate(-37.571 -12.406)"/>
    </g>
  </g>
</svg>
