<svg id="Icon_Media_Medal_Bronze" xmlns="http://www.w3.org/2000/svg" xmlns:xlink="http://www.w3.org/1999/xlink" width="30" height="29.993" viewBox="0 0 30 29.993">
  <defs>
    <style>
      .cls-1 {
        fill: url(#linear-gradient);
      }
    </style>
    <linearGradient id="linear-gradient" x1="0.828" y1="0.036" x2="0.305" y2="1" gradientUnits="objectBoundingBox">
      <stop offset="0" stop-color="#ffa657"/>
      <stop offset="0.927" stop-color="#97421d"/>
      <stop offset="1" stop-color="#b15f15"/>
    </linearGradient>
  </defs>
  <g id="图层_1" data-name="图层 1">
    <path id="路径_36" data-name="路径 36" class="cls-1" d="M4.975,0H5.56A5.582,5.582,0,0,1,7.679,2.659a3.465,3.465,0,0,1,.032,2.516A5.681,5.681,0,0,1,6.388,7.223a.774.774,0,0,0-.235.541c-.028.593-.078,1.186-.131,1.778a13.555,13.555,0,0,0,.013,3.119,9.053,9.053,0,0,0,18-1.461c0-1-.163-2-.182-3a1.97,1.97,0,0,0-.6-1.355,4.141,4.141,0,0,1-1.2-2.727A4.945,4.945,0,0,1,24.408,0h.586A5.531,5.531,0,0,1,27.1,2.623a3.512,3.512,0,0,1,0,2.681,5.823,5.823,0,0,1-1.251,1.89.633.633,0,0,0-.2.522c.031.369.047.739.069,1.109.02.318.059.342.343.2a6.177,6.177,0,0,1,2.919-.608.913.913,0,0,1,.952.848,6.391,6.391,0,0,1-.008,1.923,3.818,3.818,0,0,1-2.659,3.29,7.282,7.282,0,0,1-1.746.335.352.352,0,0,0-.342.256c-.117.313-.253.613-.391.916s-.137.308.195.366a5.477,5.477,0,0,1,3.251,2.039.872.872,0,0,1-.018,1.2,6.482,6.482,0,0,1-1.486,1.314A3.82,3.82,0,0,1,22.353,21c-.087-.052-.174-.175-.279-.115s-.048.2-.048.3q0,3.892,0,7.783a.938.938,0,0,1-.465.91.951.951,0,0,1-1.045-.088c-.535-.357-1.061-.73-1.614-1.058a.821.821,0,0,1-.447-.821c.022-1.979.011-3.959.01-5.939,0-.348-.018-.355-.347-.264a7.889,7.889,0,0,1-.992.246c-.3.042-.376.18-.374.464.012,1.493.006,2.985,0,4.477,0,.1.048.244-.048.3s-.193-.057-.279-.113c-.409-.266-.819-.529-1.22-.809a.341.341,0,0,0-.447,0c-.4.278-.811.542-1.221.806-.087.056-.175.172-.28.122s-.057-.194-.057-.295c0-1.511-.007-3.023,0-4.535,0-.248-.068-.371-.33-.412a9.33,9.33,0,0,1-.988-.24c-.391-.106-.391-.113-.391.295V28.1a.479.479,0,0,1-.208.474c-.633.4-1.251.824-1.883,1.236a1,1,0,0,1-.459.178.9.9,0,0,1-1.009-.979q0-3.892,0-7.783V20.99c0-.122-.055-.162-.167-.094s-.217.133-.327.195a3.726,3.726,0,0,1-3.845.033,6.445,6.445,0,0,1-1.744-1.407.954.954,0,0,1,0-1.474,5.475,5.475,0,0,1,3.206-1.9c.2-.03.247-.1.156-.287-.156-.325-.294-.659-.425-.995a.337.337,0,0,0-.322-.241,8.3,8.3,0,0,1-1.185-.17A3.865,3.865,0,0,1,.116,11.573C.074,11.383.038,11.192,0,11V9.359c.192-.754.456-.966,1.233-.951a5.984,5.984,0,0,1,2.737.644c.195.1.269.042.281-.156.025-.408.044-.817.074-1.225A.57.57,0,0,0,4.14,7.2a6.27,6.27,0,0,1-.9-1.144,3.816,3.816,0,0,1-.626-1.894A4.948,4.948,0,0,1,4.975,0Z"/>
    <path id="路径_37" data-name="路径 37" class="cls-1" d="M118.776,64.237a6.753,6.753,0,1,1-6.743-6.777A6.754,6.754,0,0,1,118.776,64.237Zm-4.663-1.617a1.521,1.521,0,0,0-1.271-1.751,3.323,3.323,0,0,0-1.592.025,1.579,1.579,0,0,0-1.23,1.165c-.181.7.012.931.72.908.436-.014.537-.1.613-.54a.464.464,0,0,1,.195-.342,1.024,1.024,0,0,1,1,.026.833.833,0,0,1,.2.916c-.082.335-.242.46-.662.493a.417.417,0,0,0-.411.307.529.529,0,0,0,.511.766c.547.042.766.268.782.815.021.777-.286,1.062-1.072.993-.048,0-.1-.006-.145-.013a.568.568,0,0,1-.558-.57.421.421,0,0,0-.439-.414,2.936,2.936,0,0,0-.38-.007c-.443.013-.613.222-.541.663a1.713,1.713,0,0,0,1.212,1.407,3.407,3.407,0,0,0,1.531.113,1.88,1.88,0,0,0,1.691-1.361,1.7,1.7,0,0,0-.7-2.135c-.12-.088-.1-.14,0-.221a1.658,1.658,0,0,0,.544-1.243Z" transform="translate(-97.038 -52.967)"/>
  </g>
</svg>
