<svg xmlns="http://www.w3.org/2000/svg" xmlns:xlink="http://www.w3.org/1999/xlink" width="25.768" height="22.96" viewBox="0 0 25.768 22.96">
  <defs>
    <style>
      .cls-1 {
        fill: url(#linear-gradient);
      }
    </style>
    <linearGradient id="linear-gradient" x1="0.5" x2="0.5" y2="1" gradientUnits="objectBoundingBox">
      <stop offset="0" stop-color="red"/>
      <stop offset="1" stop-color="#f0d"/>
    </linearGradient>
  </defs>
  <g id="icon_board_heet" transform="translate(-146 -373.01)">
    <path id="路径_18" data-name="路径 18" class="cls-1" d="M7.335,12.522a4.679,4.679,0,0,1-1.276,1.984,3.272,3.272,0,0,0-.886,2.45A3.843,3.843,0,0,0,5.8,18.648c.033.055.068.11.106.162a.439.439,0,0,1,.049.56.448.448,0,0,1-.517.156,8,8,0,0,1-2.485-.964A6.183,6.183,0,0,1,.166,14.267,9.99,9.99,0,0,1,.811,8.642a16.778,16.778,0,0,1,.93-2.062c.178-.332.356-.439.6-.352s.3.266.257.622a4.8,4.8,0,0,0,.258,2.129,9.51,9.51,0,0,1,.769-1.765,16.35,16.35,0,0,1,1.765-2.5A5.269,5.269,0,0,0,6.6.7C6.592.635,6.589.57,6.584.506A.433.433,0,0,1,6.79.058.438.438,0,0,1,7.3.118a7.4,7.4,0,0,1,1.8,1.811A5.688,5.688,0,0,1,10.1,4.956a10.926,10.926,0,0,0,.329,2.373,2.682,2.682,0,0,0,.236.581.552.552,0,0,0,.12-.281,3.951,3.951,0,0,1,1.391-2.137c.183-.136.369-.261.6-.12.216.129.21.338.206.559a10.9,10.9,0,0,0,.222,2.8c.159.64.482,1.231.615,1.887a9.191,9.191,0,0,1-.2,5.118,5.8,5.8,0,0,1-4.218,3.673c-.195.053-.4.088-.591.137a.41.41,0,0,1-.5-.195.419.419,0,0,1,.086-.529,4.873,4.873,0,0,0,.677-.9,3.8,3.8,0,0,0,.47-2.581c-.048-.289-.058-.3-.3-.11a2.691,2.691,0,0,1-.886.432c-.417.114-.679-.1-.611-.534A5.39,5.39,0,0,0,7.8,13.941,3.079,3.079,0,0,0,7.335,12.522Z" transform="matrix(0.951, 0.309, -0.309, 0.951, 158.37, 373.011)"/>
    <path id="路径_85" data-name="路径 85" class="cls-1" d="M5.624,9.6a3.587,3.587,0,0,1-.978,1.521A2.508,2.508,0,0,0,3.966,13a2.946,2.946,0,0,0,.482,1.3c.025.042.052.084.082.124a.337.337,0,0,1,.037.429.343.343,0,0,1-.4.119,6.136,6.136,0,0,1-1.906-.739A4.74,4.74,0,0,1,.126,10.939,7.66,7.66,0,0,1,.621,6.625a12.864,12.864,0,0,1,.713-1.581c.136-.255.273-.336.458-.27s.226.2.2.477a3.68,3.68,0,0,0,.2,1.633,7.292,7.292,0,0,1,.589-1.353A12.536,12.536,0,0,1,4.13,3.611,4.04,4.04,0,0,0,5.057.536c0-.049-.006-.1-.01-.148A.332.332,0,0,1,5.206.044.336.336,0,0,1,5.6.09,5.674,5.674,0,0,1,6.982,1.479,4.361,4.361,0,0,1,7.741,3.8a8.377,8.377,0,0,0,.252,1.82,2.057,2.057,0,0,0,.181.446.423.423,0,0,0,.092-.216A3.029,3.029,0,0,1,9.333,4.211c.14-.1.283-.2.464-.092.165.1.161.259.158.429a8.359,8.359,0,0,0,.17,2.146c.122.491.37.944.472,1.446a7.047,7.047,0,0,1-.151,3.924A4.448,4.448,0,0,1,7.212,14.88c-.149.041-.3.067-.453.1a.314.314,0,0,1-.382-.149.321.321,0,0,1,.066-.406,3.736,3.736,0,0,0,.519-.694,2.913,2.913,0,0,0,.361-1.979c-.037-.221-.044-.226-.233-.084A2.064,2.064,0,0,1,6.411,12c-.32.088-.521-.08-.469-.409a4.133,4.133,0,0,0,.038-.906A2.361,2.361,0,0,0,5.624,9.6Z" transform="translate(146.003 376.501)"/>
  </g>
</svg>
