<svg xmlns="http://www.w3.org/2000/svg" width="17.728" height="15.966" viewBox="0 0 17.728 15.966">
  <defs>
    <style>
      .cls-1 {
        fill: #da7b11;
      }
    </style>
  </defs>
  <path id="Icon_PasswordMedium" class="cls-1" d="M8.564.289.2,15.256A.5.5,0,0,0,.636,16H17.364a.5.5,0,0,0,.5-.5.494.494,0,0,0-.064-.244L9.436.289a.5.5,0,0,0-.872,0ZM10,13.75a.25.25,0,0,1-.25.25H8.25A.25.25,0,0,1,8,13.75v-1.5A.25.25,0,0,1,8.25,12h1.5a.25.25,0,0,1,.25.25Zm0-3a.25.25,0,0,1-.25.25H8.25A.25.25,0,0,1,8,10.75v-6a.25.25,0,0,1,.25-.25h1.5a.25.25,0,0,1,.25.25Z" transform="translate(-0.136 -0.034)"/>
</svg>
