<svg xmlns="http://www.w3.org/2000/svg" width="14.4" height="12" viewBox="0 0 14.4 12">
  <defs>
    <style>
      .cls-1 {
        fill: gray;
      }
    </style>
  </defs>
  <path id="Icon_Media_Comments" class="cls-1" d="M11.4,2H3A3,3,0,0,0,0,5v6a3,3,0,0,0,3,3h8.4a3,3,0,0,0,3-3V5A3,3,0,0,0,11.4,2ZM1.2,11V5A1.8,1.8,0,0,1,3,3.2H7.8v9.6H3A1.8,1.8,0,0,1,1.2,11Zm12,0a1.8,1.8,0,0,1-1.8,1.8H9V3.2h2.4A1.8,1.8,0,0,1,13.2,5ZM12,7.4a.6.6,0,0,1-.6.6h-.6a.6.6,0,0,1,0-1.2h.6A.6.6,0,0,1,12,7.4Zm0,2.4a.6.6,0,0,1-.6.6h-.6a.6.6,0,0,1,0-1.2h.6A.6.6,0,0,1,12,9.8ZM12,5a.6.6,0,0,1-.6.6h-.6a.6.6,0,0,1,0-1.2h.6A.6.6,0,0,1,12,5Z" transform="translate(0 -2)"/>
</svg>
