<svg id="Icon_Media_VV" xmlns="http://www.w3.org/2000/svg" width="15.689" height="12" viewBox="0 0 15.689 12">
  <defs>
    <style>
      .cls-1 {
        fill: gray;
      }
    </style>
  </defs>
  <g id="图层_1" data-name="图层 1" transform="translate(0)">
    <path id="路径_54" data-name="路径 54" class="cls-1" d="M7.852,0h6a1.906,1.906,0,0,1,.942.2,1.577,1.577,0,0,1,.891,1.435q.016,4.363,0,8.727A1.67,1.67,0,0,1,13.908,12c-1.133,0-2.266,0-3.4,0H1.819a1.723,1.723,0,0,1-1.582-.821A1.534,1.534,0,0,1,0,10.365Q0,6,0,1.638A1.679,1.679,0,0,1,1.779,0Zm4.3,6a4.308,4.308,0,1,0-1.265,3.05A4.3,4.3,0,0,0,12.15,6Z" transform="translate(0)"/>
    <path id="路径_55" data-name="路径 55" class="cls-1" d="M129.414,81.767c0-.471,0-.942,0-1.413a.46.46,0,0,1,.741-.4c.708.476,1.418.948,2.124,1.429a.449.449,0,0,1,0,.791c-.71.483-1.429.957-2.143,1.435a.444.444,0,0,1-.486.041.464.464,0,0,1-.239-.445C129.417,82.722,129.414,82.245,129.414,81.767Z" transform="translate(-122.805 -75.776)"/>
  </g>
</svg>
