<svg xmlns="http://www.w3.org/2000/svg" xmlns:xlink="http://www.w3.org/1999/xlink" width="10.803" height="15" viewBox="0 0 10.803 15">
  <defs>
    <style>
      .cls-1 {
        fill: url(#linear-gradient);
      }
    </style>
    <linearGradient id="linear-gradient" x1="0.5" x2="0.5" y2="1" gradientUnits="objectBoundingBox">
      <stop offset="0" stop-color="red"/>
      <stop offset="1" stop-color="#f0d"/>
    </linearGradient>
  </defs>
  <g id="Icon_Media_Heat" transform="translate(0.003 0.001)">
    <g id="图层_1" data-name="图层 1" transform="translate(-0.003 -0.001)">
      <path id="路径_18" data-name="路径 18" class="cls-1" d="M5.624,9.6a3.587,3.587,0,0,1-.978,1.521A2.508,2.508,0,0,0,3.966,13a2.946,2.946,0,0,0,.482,1.3c.025.042.052.084.082.124a.337.337,0,0,1,.037.429.343.343,0,0,1-.4.119,6.136,6.136,0,0,1-1.906-.739A4.74,4.74,0,0,1,.126,10.939,7.66,7.66,0,0,1,.621,6.625a12.864,12.864,0,0,1,.713-1.581c.136-.255.273-.336.458-.27s.226.2.2.477a3.68,3.68,0,0,0,.2,1.633,7.292,7.292,0,0,1,.589-1.353A12.536,12.536,0,0,1,4.13,3.611,4.04,4.04,0,0,0,5.057.536c0-.049-.006-.1-.01-.148A.332.332,0,0,1,5.206.044.336.336,0,0,1,5.6.09,5.674,5.674,0,0,1,6.982,1.479,4.361,4.361,0,0,1,7.741,3.8a8.377,8.377,0,0,0,.252,1.82,2.057,2.057,0,0,0,.181.446.423.423,0,0,0,.092-.216A3.029,3.029,0,0,1,9.333,4.211c.14-.1.283-.2.464-.092.165.1.161.259.158.429a8.359,8.359,0,0,0,.17,2.146c.122.491.37.944.472,1.446a7.047,7.047,0,0,1-.151,3.924A4.448,4.448,0,0,1,7.212,14.88c-.149.041-.3.067-.453.1a.314.314,0,0,1-.382-.149.321.321,0,0,1,.066-.406,3.736,3.736,0,0,0,.519-.694,2.913,2.913,0,0,0,.361-1.979c-.037-.221-.044-.226-.233-.084A2.064,2.064,0,0,1,6.411,12c-.32.088-.521-.08-.469-.409a4.133,4.133,0,0,0,.038-.906A2.361,2.361,0,0,0,5.624,9.6Z" transform="translate(0.003 0.001)"/>
    </g>
  </g>
</svg>
