<svg xmlns="http://www.w3.org/2000/svg" xmlns:xlink="http://www.w3.org/1999/xlink" width="20.845" height="30" viewBox="0 0 20.845 30">
  <defs>
    <style>
      .cls-1 {
        fill: url(#linear-gradient);
      }
    </style>
    <linearGradient id="linear-gradient" x1="-0.269" y1="-1.342" x2="1.643" y2="1" gradientUnits="objectBoundingBox">
      <stop offset="0" stop-color="#40e3ff"/>
      <stop offset="1" stop-color="#f548f8"/>
    </linearGradient>
  </defs>
  <g id="icon_board_diamond" transform="translate(-0.246 0.017)">
    <g id="图层_1" data-name="图层 1" transform="translate(0.246 -0.017)">
      <path id="路径_38" data-name="路径 38" class="cls-1" d="M55.052,239.651a1.049,1.049,0,0,1-.612-1.062c.013-3.571.006-7.14.006-10.71,0-.428,0-.428.436-.429.371,0,.742.015,1.111-.005a.489.489,0,0,1,.506.3q.908,1.6,1.843,3.193a2.593,2.593,0,0,0,4.543,0q.939-1.586,1.843-3.192a.489.489,0,0,1,.505-.3c.418.02.839.013,1.259,0,.21,0,.3.065.293.285-.013.361,0,.722,0,1.083,0,3.259-.006,6.516.007,9.777a1.053,1.053,0,0,1-.613,1.063H65.59a3.732,3.732,0,0,1-.652-.493l-4.116-3.607c-.141-.124-.235-.149-.391-.011-.964.855-1.929,1.707-2.91,2.54a18.43,18.43,0,0,1-1.886,1.571Z" transform="translate(-50.201 -209.652)"/>
      <path id="路径_39" data-name="路径 39" class="cls-1" d="M100.477,165.176a.944.944,0,0,1-.777-.454c-.653-1.12-1.3-2.246-1.955-3.363a.354.354,0,0,1,.014-.4q1.279-2.149,2.547-4.3c.106-.181.188-.27.333-.022q1.263,2.157,2.544,4.307a.391.391,0,0,1,.009.455q-.949,1.625-1.887,3.261A1,1,0,0,1,100.477,165.176Z" transform="translate(-90.066 -144.237)"/>
      <path id="路径_40" data-name="路径 40" class="cls-1" d="M100.45-.016a.843.843,0,0,1,.782.428c.666,1.135,1.321,2.278,1.984,3.415a.292.292,0,0,1-.015.327q-1.3,2.2-2.607,4.406c-.095.161-.167.163-.263,0q-1.3-2.2-2.606-4.405a.313.313,0,0,1,0-.354c.652-1.122,1.3-2.246,1.95-3.363A.86.86,0,0,1,100.45-.016Z" transform="translate(-90.05 0.017)"/>
      <path id="路径_41" data-name="路径 41" class="cls-1" d="M21.33,66.334c-.8,0-1.6-.006-2.4,0a.517.517,0,0,1-.515-.289c-.575-1.017-1.173-2.028-1.75-3.045a.924.924,0,0,1,.842-1.477c1.173-.009,2.341,0,3.512-.005a.458.458,0,0,1,.448.253c.833,1.423,1.676,2.839,2.514,4.259.151.255.129.3-.163.3C22.988,66.336,22.163,66.334,21.33,66.334Z" transform="translate(-15.221 -56.706)"/>
      <path id="路径_42" data-name="路径 42" class="cls-1" d="M156.094,66.352h-2.488c-.281,0-.306-.041-.166-.279Q154.717,63.9,156,61.738a.354.354,0,0,1,.332-.194c1.23,0,2.459-.015,3.688.008a.909.909,0,0,1,.79,1.4c-.6,1.071-1.231,2.128-1.841,3.194a.408.408,0,0,1-.414.206C157.733,66.35,156.914,66.352,156.094,66.352Z" transform="translate(-141.381 -56.724)"/>
      <path id="路径_43" data-name="路径 43" class="cls-1" d="M19.06,149.277c-.594,0-1.189,0-1.783,0a.891.891,0,0,1-.809-1.372c.6-1.072,1.225-2.128,1.834-3.194a.391.391,0,0,1,.378-.214c1.666,0,3.333,0,5,0,.275,0,.3.041.156.283-.837,1.418-1.679,2.833-2.512,4.254a.447.447,0,0,1-.448.244C20.269,149.27,19.668,149.277,19.06,149.277Z" transform="translate(-15.072 -133.193)"/>
      <path id="路径_44" data-name="路径 44" class="cls-1" d="M156.139,144.457c.819,0,1.637.006,2.456,0a.446.446,0,0,1,.442.258c.583,1.024,1.18,2.041,1.764,3.065a.91.91,0,0,1-.846,1.459c-1.169,0-2.339,0-3.508.005a.469.469,0,0,1-.469-.263c-.827-1.413-1.664-2.816-2.5-4.229-.149-.254-.128-.289.171-.29C154.482,144.455,155.311,144.457,156.139,144.457Z" transform="translate(-141.413 -133.151)"/>
      <path id="路径_45" data-name="路径 45" class="cls-1" d="M1.139,122.118a.909.909,0,1,1-.893.9.909.909,0,0,1,.893-.9Z" transform="translate(-0.246 -112.565)"/>
      <path id="路径_46" data-name="路径 46" class="cls-1" d="M245.273,123.021a.911.911,0,1,1-.925-.9A.931.931,0,0,1,245.273,123.021Z" transform="translate(-224.428 -112.567)"/>
    </g>
  </g>
</svg>
