<svg xmlns="http://www.w3.org/2000/svg" xmlns:xlink="http://www.w3.org/1999/xlink" width="30" height="29.994" viewBox="0 0 30 29.994">
  <defs>
    <style>
      .cls-1 {
        fill: url(#linear-gradient);
      }
    </style>
    <linearGradient id="linear-gradient" x1="0.91" x2="0.141" y2="1" gradientUnits="objectBoundingBox">
      <stop offset="0" stop-color="#ebebeb"/>
      <stop offset="0.809" stop-color="#554f40"/>
      <stop offset="1" stop-color="#ad4fe3"/>
    </linearGradient>
  </defs>
  <g id="Icon_Media_Medal_Silver" transform="translate(0.004)">
    <g id="图层_1" data-name="图层 1" transform="translate(-0.004)">
      <path id="路径_34" data-name="路径 34" class="cls-1" d="M5,0h.586A5.57,5.57,0,0,1,7.708,2.659,3.465,3.465,0,0,1,7.74,5.174,5.681,5.681,0,0,1,6.417,7.223a.774.774,0,0,0-.235.541c-.028.594-.078,1.186-.131,1.778a13.556,13.556,0,0,0,.013,3.119,9.053,9.053,0,0,0,18-1.461c0-1-.163-2-.182-3a1.97,1.97,0,0,0-.6-1.355,4.134,4.134,0,0,1-1.2-2.727A4.945,4.945,0,0,1,24.437,0h.582A5.529,5.529,0,0,1,27.15,2.676a3.5,3.5,0,0,1,.018,2.515,4.535,4.535,0,0,1-1.082,1.752,1.352,1.352,0,0,0-.4,1.235c.027.235.045.469.058.7s.091.286.313.17a5.931,5.931,0,0,1,2.706-.632c.776-.016,1.04.2,1.233.951v1.642c-.035.171-.069.343-.1.515a3.752,3.752,0,0,1-2.5,2.924,7.292,7.292,0,0,1-1.857.372.335.335,0,0,0-.321.241,9.61,9.61,0,0,1-.4.938c-.127.244-.056.313.189.356a5.425,5.425,0,0,1,3.258,2.023.878.878,0,0,1-.018,1.226,6.523,6.523,0,0,1-1.461,1.3,3.823,3.823,0,0,1-4.4.088c-.078-.049-.164-.156-.256-.114-.118.054-.059.192-.059.292q0,3.892,0,7.783a.932.932,0,0,1-1.523.829c-.558-.375-1.114-.756-1.687-1.108a.674.674,0,0,1-.359-.661c.014-2.019.008-4.038.006-6.057,0-.329-.021-.339-.333-.253a7.375,7.375,0,0,1-.992.246c-.319.042-.391.188-.391.484.013,1.492.006,2.984,0,4.477,0,.1.054.235-.06.292-.093.045-.176-.059-.255-.111-.408-.266-.819-.529-1.218-.809a.351.351,0,0,0-.469,0c-.4.279-.81.543-1.22.807-.086.055-.175.173-.281.109-.086-.052-.045-.181-.045-.276,0-1.521,0-3.043,0-4.564,0-.235-.069-.352-.313-.391-.345-.059-.683-.156-1.022-.247-.369-.1-.373-.1-.373.285v6.115a.5.5,0,0,1-.247.483c-.608.391-1.206.793-1.809,1.189a1.084,1.084,0,0,1-.482.2.9.9,0,0,1-1.024-.993q0-3.906,0-7.813c0-.1.056-.241-.049-.3s-.192.064-.279.117a3.811,3.811,0,0,1-4.325-.06,6.6,6.6,0,0,1-1.4-1.191.986.986,0,0,1,.019-1.564A5.435,5.435,0,0,1,5.1,16.333c.186-.029.228-.095.145-.271-.156-.335-.3-.678-.436-1.022a.319.319,0,0,0-.3-.224c-.291-.025-.583-.056-.869-.109A3.932,3.932,0,0,1,.275,12.038,6.023,6.023,0,0,1,.06,9.323a.932.932,0,0,1,1.047-.909,6.045,6.045,0,0,1,2.882.641c.185.1.274.064.287-.144.027-.428.048-.86.078-1.284a.488.488,0,0,0-.161-.391,6.467,6.467,0,0,1-.857-1.074,3.835,3.835,0,0,1-.688-1.995A4.947,4.947,0,0,1,5,0Z" transform="translate(0.004)"/>
      <path id="路径_35" data-name="路径 35" class="cls-1" d="M119.182,64.237a6.754,6.754,0,1,1-6.744-6.777A6.753,6.753,0,0,1,119.182,64.237Zm-6.725,3.34h1.462a.57.57,0,0,0,.651-.615c.005-.4-.2-.587-.626-.59-.555,0-1.111.006-1.667-.006-.192,0-.469.107-.558-.11-.1-.246.135-.432.317-.575.353-.276.725-.528,1.087-.792a4.105,4.105,0,0,0,1.15-1.152,1.851,1.851,0,0,0-.907-2.762,2.38,2.38,0,0,0-2.189.156,1.581,1.581,0,0,0-.827,1.48c.011.417.2.626.559.645.486.023.746-.156.8-.572a.643.643,0,0,1,.5-.609.724.724,0,0,1,.88,1.035,1.609,1.609,0,0,1-.477.584c-.469.377-.947.752-1.431,1.114a2.108,2.108,0,0,0-.955,2c.054.573.185.756.782.764.475.006.962,0,1.45,0Z" transform="translate(-97.411 -52.967)"/>
    </g>
  </g>
</svg>
