<svg xmlns="http://www.w3.org/2000/svg" xmlns:xlink="http://www.w3.org/1999/xlink" fill="none" version="1.1" width="15" height="12" viewBox="0 0 15 12"><g style="mix-blend-mode:passthrough"><g style="mix-blend-mode:passthrough"><g><path d="M7.50699,0C7.50699,0,13.2394,0,13.2394,0C13.5527,0,13.8596,0.0387854,14.1401,0.200051C14.6812,0.510845,14.9891,0.99209,14.9915,1.63511C15.0019,4.54402,15.0028,7.45292,14.994,10.3618C14.994,11.3003,14.265,11.9949,13.2965,11.998C12.2129,12.0026,11.1297,11.998,10.0466,11.998C7.27783,11.998,4.50878,11.998,1.7394,11.998C1.09926,11.998,0.57427,11.7647,0.226878,11.1773C0.0798839,10.9341,0.00126312,10.6526,0,10.3649C9.30615e-8,7.45598,9.30615e-8,4.54708,9.30615e-8,1.63817C0.00536711,0.700179,0.731866,0.00408267,1.70086,0C3.6364,0,5.57145,0,7.50699,0C7.50699,0,7.50699,0,7.50699,0ZM11.6157,5.99643C11.6143,3.62161,9.77452,1.69656,7.50406,1.69431C5.23528,1.69431,3.38512,3.62337,3.38366,5.99132C3.3822,8.35927,5.2304,10.3026,7.48942,10.3047C8.58297,10.3068,9.63245,9.85401,10.4065,9.04603C11.1805,8.23805,11.6156,7.14126,11.6157,5.99745C11.6157,5.99745,11.6157,5.99643,11.6157,5.99643Z" fill="#00B9FF" fill-opacity="1"/></g><g><path d="M6.317932119511719,5.991826539306641C6.317932119511719,5.52078653930664,6.3208770695117185,5.049751539306641,6.317932119511719,4.578712539306641C6.317932119511719,4.382743539306641,6.377960149511718,4.22708853930664,6.544342249511719,4.1326826393066405C6.710708249511718,4.038268939306641,6.872207249511719,4.06531509930664,7.026397249511719,4.174018739306641C7.703108249511718,4.650161539306641,8.382298249511718,5.12221653930664,9.056598249511719,5.60294653930664C9.356648249511718,5.816776539306641,9.358598249511719,6.1806465393066405,9.056598249511719,6.39346653930664C8.377408249511719,6.876236539306641,7.690448249511719,7.350846539306641,7.007354249511719,7.828516539306641C6.860992249511718,7.93058653930664,6.703384249511719,7.9622265393066405,6.542373249511718,7.869856539306641C6.381362949511718,7.777486539306641,6.312576289511719,7.62132653930664,6.3140411327117185,7.425356539306641C6.3208770695117185,6.946666539306641,6.317932119511719,6.469496539306641,6.317932119511719,5.991826539306641C6.317932119511719,5.991826539306641,6.317932119511719,5.991826539306641,6.317932119511719,5.991826539306641Z" fill="#00B9FF" fill-opacity="1"/></g></g></g></svg>